<?xml version="1.0" encoding="UTF-8" standalone="no"?>
<!DOCTYPE svg PUBLIC "-//W3C//DTD SVG 1.1//EN" "http://www.w3.org/Graphics/SVG/1.1/DTD/svg11.dtd">
<svg width="100%" height="100%" viewBox="0 0 540 540" version="1.1" xmlns="http://www.w3.org/2000/svg" xmlns:xlink="http://www.w3.org/1999/xlink" xml:space="preserve" xmlns:serif="http://www.serif.com/" style="fill-rule:evenodd;clip-rule:evenodd;stroke-linecap:round;stroke-linejoin:round;stroke-miterlimit:1.5;">
    <g transform="matrix(3.50801,2.02535,-1.88171,3.25922,-7126.73,-5360.46)">
        <path d="M2286.04,301.119C2286.04,303.674 2286.15,306.366 2288.41,309.444C2280.79,322.754 2296.85,367.663 2285.83,374.817C2280.31,377.079 2274.56,377.311 2268.51,374.817C2257.79,368.099 2273.38,322.594 2265.84,309.8C2268.19,306.535 2268.31,303.747 2268.31,301.119L2286.04,301.119Z" style="fill:white;stroke:black;stroke-width:1.53px;"/>
    </g>
    <g transform="matrix(3.21915,1.85857,-1.71839,2.97634,-6521.32,-4889.97)">
        <path d="M2242.31,253.42C2265.54,245.287 2288.77,245.146 2312,253.42L2319.9,260.299L2314.22,296.343L2307.37,302.006L2246.94,302.006L2240.09,296.343L2234.41,260.299L2242.31,253.42Z" style="fill:white;stroke:black;stroke-width:1.68px;"/>
    </g>
</svg>
